<svg xmlns="http://www.w3.org/2000/svg" width="752" height="246" viewBox="0 0 752 246" font-size="14" font-family="ui-monospace,SFMono-Regular,Menlo,Consolas,&quot;Liberation Mono&quot;,monospace">
<rect x="0.5" y="0.5" width="751" height="245" rx="10" fill="#0d1117" stroke="#30363d"/>
<line x1="270" y1="20" x2="270" y2="218" stroke="#30363d"/>
<text x="24" y="36" fill="#6e7681">ORDER BOOK</text>
<text x="296" y="36" xml:space="preserve"><tspan fill="#d29922">kush</tspan><tspan fill="#6e7681">@</tspan><tspan fill="#d29922">github</tspan></text>
<text x="24" y="58" fill="#6e7681">ask</text>
<text x="58" y="58" fill="#c9d1d9">100.04</text>
<rect x="120" y="48" width="39" height="11" rx="1.5" fill="#f85149"/>
<text x="24" y="80" fill="#6e7681">ask</text>
<text x="58" y="80" fill="#c9d1d9">100.03</text>
<rect x="120" y="70" width="78" height="11" rx="1.5" fill="#f85149"/>
<text x="24" y="102" fill="#6e7681">ask</text>
<text x="58" y="102" fill="#c9d1d9">100.02</text>
<rect x="120" y="92" width="52" height="11" rx="1.5" fill="#f85149"/>
<line x1="24" y1="110" x2="256" y2="110" stroke="#30363d"/>
<text x="24" y="126" fill="#d29922" font-size="12">spread 0.02 · mid 100.01</text>
<text x="24" y="146" fill="#6e7681">bid</text>
<text x="58" y="146" fill="#c9d1d9">100.00</text>
<rect x="120" y="136" width="91" height="11" rx="1.5" fill="#3fb950"/>
<text x="24" y="168" fill="#6e7681">bid</text>
<text x="58" y="168" fill="#c9d1d9">99.99</text>
<rect x="120" y="158" width="52" height="11" rx="1.5" fill="#3fb950"/>
<text x="24" y="190" fill="#6e7681">bid</text>
<text x="58" y="190" fill="#c9d1d9">99.98</text>
<rect x="120" y="180" width="26" height="11" rx="1.5" fill="#3fb950"/>
<text x="296" y="58" xml:space="preserve"><tspan fill="#58a6ff">School</tspan><tspan fill="#373e47"> .... </tspan><tspan fill="#c9d1d9">Georgia Tech, Math &amp; Computing</tspan></text>
<text x="296" y="80" xml:space="preserve"><tspan fill="#58a6ff">Work</tspan><tspan fill="#373e47"> ...... </tspan><tspan fill="#c9d1d9">Growth engineering @ Slashy (YC S25)</tspan></text>
<text x="296" y="102" xml:space="preserve"><tspan fill="#58a6ff">Research</tspan><tspan fill="#373e47"> .. </tspan><tspan fill="#c9d1d9">ML @ MIT, Collective Intelligence</tspan></text>
<text x="296" y="124" xml:space="preserve"><tspan fill="#58a6ff">Before</tspan><tspan fill="#373e47"> .... </tspan><tspan fill="#c9d1d9">Wharton, DECA ICDC x2, SIG Discovery</tspan></text>
<text x="296" y="168" xml:space="preserve"><tspan fill="#58a6ff">Building</tspan><tspan fill="#373e47"> .. </tspan><tspan fill="#c9d1d9">order books, vol surfaces, autodiff</tspan></text>
<text x="296" y="190" xml:space="preserve"><tspan fill="#58a6ff">Stack</tspan><tspan fill="#373e47"> ..... </tspan><tspan fill="#c9d1d9">Python, NumPy, C, TypeScript</tspan></text>
<text x="296" y="212" xml:space="preserve"><tspan fill="#58a6ff">Contact</tspan><tspan fill="#373e47"> ... </tspan><tspan fill="#c9d1d9">kushagra@gatech.edu</tspan></text>
</svg>